HIERARCHY
ROOT Hips
{
 OFFSET 0.000000 0.000000 0.000000
 CHANNELS 6 Xposition Yposition Zposition Yrotation Xrotation Zrotation
 JOINT Chest
 {
  OFFSET 0.000000 14.634200 -0.016200
  CHANNELS 3 Yrotation Xrotation Zrotation
  JOINT Chest2
  {
   OFFSET 0.000000 8.932900 0.033000
   CHANNELS 3 Yrotation Xrotation Zrotation
   JOINT Chest3
   {
    OFFSET 0.000000 8.892300 0.000000
    CHANNELS 3 Yrotation Xrotation Zrotation
    JOINT Chest4
    {
     OFFSET 0.000000 8.883200 0.000000
     CHANNELS 3 Yrotation Xrotation Zrotation
     JOINT Neck
     {
      OFFSET 0.000000 13.173600 0.000000
      CHANNELS 3 Yrotation Xrotation Zrotation
      JOINT Head
      {
       OFFSET 0.000000 8.324600 0.069800
       CHANNELS 3 Yrotation Xrotation Zrotation
       End Site
       {
        OFFSET 0.000000 15.692400 0.036900
       }
      }
     }
     JOINT RightCollar
     {
      OFFSET -2.619200 8.772200 0.000000
      CHANNELS 3 Yrotation Xrotation Zrotation
      JOINT RightShoulder
      {
       OFFSET -12.922000 0.000000 0.000000
       CHANNELS 3 Yrotation Xrotation Zrotation
       JOINT RightElbow
       {
        OFFSET 0.000000 -27.880900 0.000000
        CHANNELS 3 Yrotation Xrotation Zrotation
        JOINT RightWrist
        {
         OFFSET 0.000000 -22.758700 0.008200
         CHANNELS 3 Yrotation Xrotation Zrotation
         End Site
         {
          OFFSET 0.000000 -16.965000 0.000000
         }
        }
       }
      }
     }
     JOINT LeftCollar
     {
      OFFSET 2.619200 8.772200 0.000000
      CHANNELS 3 Yrotation Xrotation Zrotation
      JOINT LeftShoulder
      {
       OFFSET 12.922000 0.000000 0.000000
       CHANNELS 3 Yrotation Xrotation Zrotation
       JOINT LeftElbow
       {
        OFFSET 0.000000 -27.880900 0.000000
        CHANNELS 3 Yrotation Xrotation Zrotation
        JOINT LeftWrist
        {
         OFFSET 0.000000 -22.758700 0.008200
         CHANNELS 3 Yrotation Xrotation Zrotation
         End Site
         {
          OFFSET 0.000000 -16.965000 0.000000
         }
        }
       }
      }
     }
    }
   }
  }
 }
 JOINT RightHip
 {
  OFFSET -12.026800 0.080100 0.008100
  CHANNELS 3 Yrotation Xrotation Zrotation
  JOINT RightKnee
  {
   OFFSET 0.000000 -42.600800 -0.000200
   CHANNELS 3 Yrotation Xrotation Zrotation
   JOINT RightAnkle
   {
    OFFSET 0.000000 -38.219300 0.054300
    CHANNELS 3 Yrotation Xrotation Zrotation
    JOINT RightToe
    {
     OFFSET 0.000000 -9.685800 15.804700
     CHANNELS 3 Yrotation Xrotation Zrotation
     End Site
     {
      OFFSET 0.000000 -1.422300 5.761700
     }
    }
   }
  }
 }
 JOINT LeftHip
 {
  OFFSET 12.026800 0.080100 0.008100
  CHANNELS 3 Yrotation Xrotation Zrotation
  JOINT LeftKnee
  {
   OFFSET 0.000000 -42.600800 -0.000200
   CHANNELS 3 Yrotation Xrotation Zrotation
   JOINT LeftAnkle
   {
    OFFSET 0.000000 -38.219300 0.054300
    CHANNELS 3 Yrotation Xrotation Zrotation
    JOINT LeftToe
    {
     OFFSET 0.000000 -9.685800 15.804700
     CHANNELS 3 Yrotation Xrotation Zrotation
     End Site
     {
      OFFSET 0.000000 -1.422300 5.761700
     }
    }
   }
  }
 }
}
MOTION
Frames: 7
Frame Time: 0.008333
-10.515616 129.243344 20.693141 169.963683 -19.779239 -0.068203 1.188769 14.291127 2.431705 0.076747 1.263349 0.203365 0.125946 2.168270 0.333735 1.016795 12.845333 2.161043 -0.253721 15.977695 0.128180 -0.295149 -8.914450 0.159587 5.623212 -5.645567 -5.746701 22.619437 0.549197 -0.010806 148.522547 -62.927403 -121.475081 18.235209 -24.897791 -48.165372 -0.148367 -3.005673 5.569571 -9.403748 1.853000 -2.833146 55.342517 -76.555165 -89.794472 -4.349556 -3.735572 -10.137031 9.527541 -56.492918 4.521751 -31.420059 80.490762 -38.188284 -7.457242 -19.055164 3.767764 0.021333 -0.018763 0.013072 16.938544 -53.154729 -20.287180 85.112549 75.386401 93.265054 6.735899 -0.433675 -5.645210 -0.007774 0.007493 -0.004765
-10.508579 129.241600 20.692941 169.942118 -19.776451 -0.045342 1.187989 14.318673 2.405127 0.078231 1.269097 0.201189 0.145385 2.193203 0.316479 1.041231 12.876124 2.126331 -0.233713 15.919889 0.102179 -0.263047 -9.013917 0.145371 5.603259 -5.767078 -5.743907 22.607967 0.508560 -0.020521 148.677171 -63.016439 -121.535482 18.249022 -24.892700 -48.118693 -0.139650 -3.094657 5.602737 -9.352162 1.829988 -2.913801 55.081048 -76.433740 -89.696552 -4.327809 -3.749574 -10.129671 9.501467 -56.454093 4.545020 -31.523721 80.409111 -38.350436 -7.509963 -19.035682 3.862199 0.017184 -0.015348 0.010530 16.979043 -53.137307 -20.322370 85.072269 75.368555 93.234845 6.720890 -0.456668 -5.652026 -0.004897 0.003772 -0.003001
-10.499456 129.238152 20.694190 169.939634 -19.763728 -0.039234 1.216795 14.372072 2.369198 0.054769 1.244228 0.222254 0.180290 2.200645 0.296111 1.075193 12.895013 2.093137 -0.234360 15.874188 0.101966 -0.267049 -9.082574 0.158991 5.524748 -5.852207 -5.719401 22.549177 0.436371 -0.029763 148.865310 -63.133555 -121.613135 18.290639 -24.886071 -48.104796 -0.126410 -3.145979 5.606067 -9.369772 1.804224 -2.901916 55.016405 -76.286603 -89.753071 -4.309246 -3.756665 -10.097001 9.418785 -56.417936 4.603616 -31.443574 80.347004 -38.336170 -7.593736 -19.019804 3.943114 0.018283 -0.008740 0.011203 16.989278 -53.131954 -20.344166 85.043303 75.346677 93.209969 6.721343 -0.514867 -5.651895 -0.001646 -0.006847 -0.001008
-10.492593 129.234293 20.693376 169.935149 -19.752196 -0.024698 1.280776 14.408399 2.326917 0.089939 1.280574 0.191133 0.154498 2.161334 0.323769 1.123070 12.908578 2.053943 -0.258153 15.825729 0.127407 -0.297520 -9.133745 0.190763 5.384263 -5.914393 -5.662796 22.462752 0.352123 -0.010560 149.042448 -63.242903 -121.674379 18.308775 -24.865078 -48.076364 -0.155696 -3.183862 5.631596 -9.363884 1.763936 -2.902483 54.869095 -76.154534 -89.729356 -4.293550 -3.763615 -10.026220 9.357090 -56.387728 4.648955 -31.711017 80.245854 -38.678386 -7.626904 -18.981341 4.048160 0.012797 -0.010000 0.007842 16.996797 -53.112030 -20.362406 84.979264 75.312650 93.140013 6.696453 -0.578555 -5.639953 0.000079 -0.007080 0.000048
-10.487821 129.229769 20.692380 169.928975 -19.735897 -0.004016 1.359241 14.427341 2.281737 0.096195 1.282535 0.186301 0.164866 2.164589 0.315678 1.181093 12.918571 2.009341 -0.299145 15.779952 0.160040 -0.347517 -9.181928 0.233951 5.139019 -5.923452 -5.608629 22.404620 0.201173 0.033203 149.198485 -63.322854 -121.681329 18.295378 -24.802400 -48.081399 -0.231269 -3.215317 5.686795 -9.319142 1.714708 -2.922976 54.655311 -76.028143 -89.648834 -4.281132 -3.771751 -9.903526 9.348045 -56.377754 4.650558 -32.040264 80.156945 -39.058543 -7.670352 -18.922336 4.152913 0.007483 -0.020606 0.004585 16.999544 -53.096224 -20.378548 84.915264 75.286983 93.060373 6.680553 -0.635833 -5.628586 0.002041 -0.004881 0.001251
-10.489775 129.223104 20.695853 169.945812 -19.695146 0.029661 1.422224 14.417659 2.211439 0.102967 1.283983 0.181090 0.176043 2.166986 0.307051 1.243715 12.925916 1.962221 -0.353592 15.737304 0.194936 -0.407441 -9.216867 0.305327 4.920075 -5.940051 -5.484390 22.277429 0.085019 0.035727 149.422236 -63.461051 -121.791875 18.318586 -24.736584 -47.995775 -0.325286 -3.234012 5.743181 -9.285054 1.662216 -2.891090 54.561810 -75.852384 -89.672532 -4.267927 -3.781519 -9.713335 9.350326 -56.390436 4.608277 -32.180951 80.100607 -39.242202 -7.761568 -18.863727 4.239605 0.010068 -0.026271 0.006168 17.013930 -53.101207 -20.433590 84.844665 75.269003 92.964346 6.669691 -0.692763 -5.612807 0.007710 0.000150 0.004725
-10.484415 129.218952 20.694140 169.964156 -19.682830 0.037039 1.491664 14.430281 2.166396 0.109595 1.284818 0.175788 0.187130 2.168391 0.298228 1.305440 12.930321 1.914695 -0.416794 15.697580 0.227591 -0.480476 -9.258419 0.353507 4.694418 -5.931720 -5.342989 22.135806 -0.045809 0.021661 149.687099 -63.608443 -121.937438 18.329818 -24.631776 -47.842942 -0.424419 -3.237584 5.784217 -9.265509 1.612949 -2.814049 54.542567 -75.600164 -89.761083 -4.244504 -3.785927 -9.453678 9.126959 -56.341877 4.768840 -31.968563 80.047166 -39.162768 -7.885200 -18.821419 4.308772 0.009735 -0.014099 0.005965 16.974814 -53.091069 -20.422196 84.786066 75.261456 92.874935 6.669824 -0.742188 -5.593661 0.006000 0.001555 0.003677
